# xmcd
#
# Track frame offsets: 
#        150
#        19987
#        47580
#        69825
#        92605
#        113652
#        140207
#        161505
#        187592
#        210082
#
# Disc length: 3084 seconds
#
# Revision: 0
# Processed by: cddbd v1.5.2PL0 Copyright (c) Steve Scherf et al.
# Submitted via: ExactAudioCopy v1.0b3
#
DISCID=760c0a0a
DTITLE=Duy Khanh - Ve Dau Mai Toc Nguoi Thuong
DYEAR=1991
DGENRE=
TTITLE0=Ve dau mai toc nguoi thuong
TTITLE1=Sao khong thay hoi am
TTITLE2=Bo pho len rung
TTITLE3=Muoi nam tai ngo
TTITLE4=Phuong troi xu la
TTITLE5=Nguoi linh tre
TTITLE6=Ba thang ta tu
TTITLE7=Que huong bo lai
TTITLE8=Trong tam mat doi
TTITLE9=Ngay ve
EXTD=
EXTT0=
EXTT1=
EXTT2=
EXTT3=
EXTT4=
EXTT5=
EXTT6=
EXTT7=
EXTT8=
EXTT9=
PLAYORDER=
